<svg viewBox="0 0 18 18">
  <path d="M9 0c4.970563 0 9 4.029437 9 9s-4.029437 9-9 9-9-4.029437-9-9 4.029437-9 9-9zm-.131591 4.646484c-.202149 0-.202149 0-.373535.101075-.13711.080859-.13711.080859-.164532.282656l-.006855.108457v3.251953H5.264893c-.228516 0-.228516 0-.312012.13623-.083496.136231-.083496.136231-.083496.373536 0 .246093 0 .246093.079102.373535.063281.101953.063281.101953.227812.122344l.088594.005097h3.058594v3.260742c0 .290039 0 .290039.171387.386719.171386.09668.171386.09668.373535.09668.228515 0 .228515 0 .373535-.09668.116015-.077344.116015-.077344.139219-.278437l.0058-.108282V9.401367h3.09375c.237305 0 .237305 0 .316407-.123047.079101-.123047.079101-.123047.079101-.377929 0-.237305 0-.237305-.079101-.373536-.063282-.108984-.063282-.108984-.227813-.130781l-.088594-.005449h-3.09375V5.138672c0-.290039 0-.290039-.140625-.391113-.140625-.101075-.140625-.101075-.377929-.101075z" fill="currentColor" fill-rule="evenodd"/>
</svg>